<svg xmlns="http://www.w3.org/2000/svg" xmlns:xlink="http://www.w3.org/1999/xlink" xmlns:lucid="lucid" width="1420" height="799.74"><g transform="translate(-280 -99.99999999999999)" lucid:page-tab-id="ZNFV_U8-w3TE"><path d="M0 0h1760v1360H0z" fill="#fff"/><path d="M650 739c0 34.52 27.98 62.5 62.5 62.5h735c34.52 0 62.5-27.98 62.5-62.5m0-375c0-34.52-27.98-62.5-62.5-62.5h-735c-34.52 0-62.5 27.98-62.5 62.5" stroke="#5e5e5e" stroke-width="3" fill="none"/><path d="M422 553h20.75a12 12 0 0 0 12-12v-81.33a12 12 0 0 1 12-12H470" stroke="#333" stroke-width="2" fill="none"/><path d="M422.03 554h-1.07l.04-.98v-.5l-.03-.52h1.06z" stroke="#333" stroke-width=".05" fill="#333"/><path d="M485.26 447.67L471 452.3v-9.27z" stroke="#333" stroke-width="2" fill="#333"/><path d="M627.5 447.67h17.7a12 12 0 0 1 12 12V541a12 12 0 0 0 12 12h.18" stroke="#333" stroke-width="2" fill="none"/><path d="M627.53 448.67h-1.03v-2h1.03z" stroke="#333" stroke-width=".05" fill="#333"/><path d="M684.64 553l-14.26 4.64v-9.28z" stroke="#333" stroke-width="2" fill="#333"/><path d="M1471.47 553h72.15" stroke="#333" fill="none"/><path d="M1471.48 553.5h-.5v-1h.5z" stroke="#333" stroke-width=".05" fill="#333"/><path d="M1558.38 553l-14.26 4.64v-9.28z" stroke="#333" fill="#333"/><path d="M420 553c0 33.55-26.86 60.75-60 60.75s-60-27.2-60-60.75 26.86-60.75 60-60.75 60 27.2 60 60.75z" stroke="#333" stroke-width="2" fill="#225798"/><use xlink:href="#a" transform="matrix(1,0,0,1,300,615.75) translate(3.95061728395061 25.77777777777778)"/><use xlink:href="#b" transform="matrix(1,0,0,1,300,615.75) translate(14.351851851851844 52.44444444444445)"/><path d="M1680 553c0 33.14-26.86 60-60 60s-60-26.86-60-60 26.86-60 60-60 60 26.86 60 60z" stroke="#333" stroke-width="6" fill="#d7e9ff"/><path d="M1666.75 553c0 25.82-20.93 46.75-46.75 46.75s-46.75-20.93-46.75-46.75 20.93-46.75 46.75-46.75 46.75 20.93 46.75 46.75z" fill="#333"/><use xlink:href="#a" transform="matrix(1,0,0,1,1560,615) translate(3.95061728395061 25.77777777777778)"/><use xlink:href="#c" transform="matrix(1,0,0,1,1560,615) translate(26.697530864197535 52.44444444444445)"/><path d="M830 498a5 5 0 0 1 5-5h150a5 5 0 0 1 5 5v110a5 5 0 0 1-5 5H835a5 5 0 0 1-5-5z" stroke="#333" stroke-width="2" fill="#75b2ff"/><use xlink:href="#d" transform="matrix(1,0,0,1,830,493) translate(30.061728395061735 62.77777777777778)"/><use xlink:href="#e" transform="matrix(1,0,0,1,830,493) translate(83.08641975308643 62.77777777777778)"/><path d="M1070 498.75a5 5 0 0 1 5-5h150a5 5 0 0 1 5 5v110a5 5 0 0 1-5 5h-150a5 5 0 0 1-5-5z" stroke="#333" stroke-width="2" fill="#75b2ff"/><use xlink:href="#f" transform="matrix(1,0,0,1,1070,493.75) translate(56.574074074074076 51.52777777777778)"/><use xlink:href="#g" transform="matrix(1,0,0,1,1070,493.75) translate(17.993827160493822 78.19444444444446)"/><path d="M690 553l37.5-37.5L765 553l-37.5 37.5z" stroke="#333" stroke-width="3" fill="#fff"/><use xlink:href="#h" transform="matrix(1,0,0,1,690,590.5) translate(-5.4320987654320945 17.77777777777778)"/><use xlink:href="#i" transform="matrix(1,0,0,1,690,590.5) translate(19.598765432098766 44.44444444444444)"/><path d="M540 128a8 8 0 0 1 8-8h929.8a8 8 0 0 1 8 8v91.76a8 8 0 0 1-8 8H548a8 8 0 0 1-8-8z" stroke="#000" stroke-opacity="0" stroke-width="2" fill="#fff" fill-opacity="0"/><use xlink:href="#j" transform="matrix(1,0,0,1,544,123.99999999999999) translate(87.20753086419757 26.782777777777778)"/><use xlink:href="#k" transform="matrix(1,0,0,1,544,123.99999999999999) translate(238.34950617283954 26.782777777777778)"/><use xlink:href="#l" transform="matrix(1,0,0,1,544,123.99999999999999) translate(334.20629629629633 26.782777777777778)"/><use xlink:href="#m" transform="matrix(1,0,0,1,544,123.99999999999999) translate(414.11123456790125 26.782777777777778)"/><use xlink:href="#n" transform="matrix(1,0,0,1,544,123.99999999999999) translate(440.26061728395064 26.782777777777778)"/><use xlink:href="#o" transform="matrix(1,0,0,1,544,123.99999999999999) translate(472.1643209876543 26.782777777777778)"/><use xlink:href="#p" transform="matrix(1,0,0,1,544,123.99999999999999) translate(624.6902469135803 26.782777777777778)"/><use xlink:href="#q" transform="matrix(1,0,0,1,544,123.99999999999999) translate(730.8902469135802 26.782777777777778)"/><use xlink:href="#r" transform="matrix(1,0,0,1,544,123.99999999999999) translate(784.6458024691358 26.782777777777778)"/><use xlink:href="#s" transform="matrix(1,0,0,1,544,123.99999999999999) translate(317.7851851851852 58.24944444444445)"/><use xlink:href="#t" transform="matrix(1,0,0,1,544,123.99999999999999) translate(468.92716049382716 58.24944444444445)"/><use xlink:href="#u" transform="matrix(1,0,0,1,544,123.99999999999999) translate(563.5456790123457 58.24944444444445)"/><use xlink:href="#v" transform="matrix(1,0,0,1,544,123.99999999999999) translate(472.31 92.39611111111113)"/><path d="M846.84 194.52l345.98-1.4" stroke="#a9afb8" stroke-width="2" fill="none"/><path d="M846.86 194.52h-4.02v-.98l4.02-.02z" stroke="#a9afb8" stroke-width=".05" fill="#a9afb8"/><path d="M1192.8 193.12h1.02" stroke="#a9afb8" stroke-width="2" fill="none"/><path d="M540 202.46a8 8 0 0 1 8-8h930.85a8 8 0 0 1 8 8v2.84a8 8 0 0 1-8 8H548a8 8 0 0 1-8-8z" stroke="#000" stroke-opacity="0" stroke-width="2" fill="#fff" fill-opacity="0"/><use xlink:href="#w" transform="matrix(1,0,0,1,544.0000000000006,198.4576119785658) translate(424.60542181069957 14.917037037037037)"/><use xlink:href="#x" transform="matrix(1,0,0,1,544.0000000000006,198.4576119785658) translate(480.60686213991767 14.917037037037037)"/><path d="M422 553h29.25a6 6 0 0 1 6 6v77.07a6 6 0 0 0 6 6H475" stroke="#5e5e5e" stroke-width="2" fill="none"/><path d="M422.03 554h-1.07l.04-.98v-.5l-.03-.52h1.06z" stroke="#5e5e5e" stroke-width=".05" fill="#5e5e5e"/><path d="M490.26 642.07L476 646.7v-9.27z" stroke="#5e5e5e" stroke-width="2" fill="#5e5e5e"/><path d="M627.5 642.07h23.7a6 6 0 0 0 6-6V559a6 6 0 0 1 6-6h6.18" stroke="#5e5e5e" stroke-width="2" fill="none"/><path d="M627.53 643.07h-1.03v-2h1.03z" stroke="#5e5e5e" stroke-width=".05" fill="#5e5e5e"/><path d="M684.64 553l-14.26 4.64v-9.28z" stroke="#5e5e5e" stroke-width="2" fill="#5e5e5e"/><path d="M768.12 553h42.4" stroke="#5e5e5e" stroke-width="2" fill="none"/><path d="M768.15 554h-2.03l1-1-1-1h2.03z" stroke="#5e5e5e" stroke-width=".05" fill="#5e5e5e"/><path d="M825.8 553l-14.27 4.64v-9.28z" stroke="#5e5e5e" stroke-width="2" fill="#5e5e5e"/><path d="M1310 498a5 5 0 0 1 5-5h150a5 5 0 0 1 5 5v110a5 5 0 0 1-5 5h-150a5 5 0 0 1-5-5z" stroke="#333" stroke-width="2" fill="#75b2ff"/><use xlink:href="#y" transform="matrix(1,0,0,1,1310,493) translate(29.444444444444443 51.52777777777778)"/><use xlink:href="#z" transform="matrix(1,0,0,1,1310,493) translate(46.7283950617284 78.19444444444446)"/><path d="M571 365.6l54 49.24v114.9H490V365.6z" stroke="#5e5e5e" stroke-width="3" fill="#fff"/><path d="M571 365.6v49.24h54" stroke="#5e5e5e" stroke-width="3" fill="none"/><use xlink:href="#A" transform="matrix(1,0,0,1,490,395.59999999999997) translate(31.141975308641975 43.611111111111114)"/><use xlink:href="#B" transform="matrix(1,0,0,1,490,395.59999999999997) translate(32.96296296296297 70.27777777777777)"/><path d="M573 560l52 49.24v114.9H495V560z" stroke="#5e5e5e" stroke-width="3" fill="#fff"/><path d="M573 560v49.24h52" stroke="#5e5e5e" stroke-width="3" fill="none"/><use xlink:href="#C" transform="matrix(1,0,0,1,495,590) translate(24.907407407407405 43.611111111111114)"/><use xlink:href="#B" transform="matrix(1,0,0,1,495,590) translate(30.46296296296297 70.27777777777777)"/><path d="M938.82 416.15c2.76-2.32 5.4-4.64 8.16-6.98.84-.8 1.9-1.63 2.75-2.46-.72-.9-1.9-1.6-3-1.97-2.03-.8-4.07-.54-6 .58-2.5 1.46-3.6 3.78-3.6 6.67.13 1.15.37 2.23.97 3.2.24.35.48.66.72.98m3.12 2.2c1.32.46 2.88.4 4.2.14.72-.3 2.5-1.06 3.1-.95h.13l.12.06c.35.2.7.47.95.9.48.94.24 1.88-.72 2.43l-.24.2c-3.48 2-7.2 1.7-10.56-.15-1.68-.88-2.88-2.23-3.84-3.83l-.24-.37c-2.15-3.86-1.9-7.9.6-11.56.84-1.26 1.92-2.26 3.24-3l.6-.3c3.24-1.88 6.72-1.76 10.07-.1 1.68.88 3.24 2.2 4.2 3.94l.12.32c.83 1.26-.13 2.37-1.1 3.12-1.2.88-2.27 1.94-3.35 2.86-2.5 2.1-4.9 4.2-7.3 6.3zm25.9-17.5h.36c1.08 0 1.8.74 1.8 1.82 0 1.52-1.44 1.9-2.64 1.9-1.68 0-3.24 1-4.32 2.1-1.43 1.38-2.03 3.16-2.03 5.13v8.8c0 1.04-.6 1.84-1.67 1.84h-.36c-.96 0-1.68-.8-1.68-1.83v-9.32c0-3.57 1.8-6.52 4.67-8.55 1.8-1.23 3.7-1.9 5.87-1.9zm-45.33 6.26c1.45-1.4 2.77-2.82 4.2-4.23.5-.37 1.93-2.03 2.53-2.03h.72v.03c.84.17 1.44.7 1.44 1.57v.38c0 .6-.6 1.3-1.1 1.74-.83.9-1.67 1.75-2.5 2.6l-4.45 4.47c1.92 1.9 3.84 3.8 5.64 5.72.6.54 1.07 1.1 1.55 1.6.24.2.48.43.6.72.24.23.24.5.24.8v.5c-.13.8-.73 1.47-1.57 1.47h-.36c-.6 0-1.32-.68-1.68-1.06-.85-.8-1.7-1.66-2.53-2.48l-2.76-2.75v4.4c0 1-.6 1.84-1.67 1.84h-.24c-1.1 0-1.7-.84-1.7-1.85v-24.77c0-1 .6-1.8 1.7-1.8h.23c1.08 0 1.68.8 1.68 1.8v11.33zm-11.86-2.45c-.48-.26-1.56-.35-2.16-.37-3-.12-5.15 1.6-6.47 4.3-.47.9-.6 1.9-.6 2.93 0 3.13 1.57 5.3 4.32 6.65 1.08.5 2.4.57 3.48.57.96 0 2.4-.6 3.24-1l.12-.08h.72v.02c.84.18 1.56.7 1.56 1.58v.37c0 2.24-4.08 2.73-5.64 2.84-5.5.37-9.6-2.63-11.15-7.84-.24-.88-.36-1.8-.36-2.74v-.72c0-3.95 2.03-7.1 5.4-9.1 1.54-.94 3.22-1.43 5.14-1.43h.72c1.92 0 3.72.6 5.28 1.67l.12.1.12.13c.12.3.36.63.36.97v.35c0 .94-.72 1.43-1.56 1.6l-.12.03h-.24c-.48-.03-1.68-.57-2.28-.8zm-33.1 6.92c0 2.78 1.32 4.8 3.72 6.27 1.08.65 2.28.97 3.6.97 2.64 0 4.67-1.4 6.1-3.7.73-1.1.97-2.33.97-3.6 0-2.6-1.2-4.54-3.35-5.97-1.2-.8-2.4-1.17-3.84-1.17-3 0-5.28 1.55-6.6 4.26-.36.95-.6 1.92-.6 2.95zm6.84-10.87h.48c4.2 0 7.43 2.06 9.47 5.75.84 1.46 1.2 3.06 1.2 4.75v.74c0 3.95-1.92 7.1-5.28 9.1-1.55.92-3.35 1.4-5.15 1.4h-.72c-3.96 0-7.08-1.94-9.12-5.35-.83-1.58-1.3-3.33-1.3-5.16v-.74c0-3.95 1.9-7.07 5.26-9.1 1.56-.94 3.36-1.4 5.16-1.4zm-30.7 10.87c0 2.86 1.44 5 3.96 6.38.96.54 2.04.86 3.23.86 2.76 0 4.8-1.3 6.24-3.68.73-1.12.97-2.32.97-3.6 0-2.5-1.08-4.4-3.12-5.87-1.2-.86-2.52-1.3-4.08-1.3-3 0-5.15 1.56-6.47 4.27-.48.95-.72 1.92-.72 2.95zm14.4-8.15v-7.7c0-1.03.7-1.83 1.67-1.83h.36c1.1 0 1.7.8 1.7 1.82v16.22c0 3.95-1.93 7.1-5.4 9.1-1.57.92-3.25 1.4-5.17 1.4h-.72c-3.94 0-7.06-1.94-8.98-5.35-.96-1.58-1.44-3.33-1.44-5.16v-.74c0-3.95 1.92-7.1 5.4-9.1 1.56-.94 3.24-1.4 5.03-1.4h.73c2.76 0 5.04 1.03 6.84 2.72zM919.18 343.05H930v10.98h5.36c2.52 0 5.15-.4 7.46-1.23 1.15-.4 2.52-.96 3.67-1.64-1.58-1.97-2.32-4.5-2.53-6.95-.3-3.4.32-7.77 2.63-10.36l1.15-1.3 1.26 1.03c3.48 2.73 6.32 6.55 6.74 10.9 4.1-1.22 8.93-.88 12.5 1.17l1.47.9-.73 1.5c-3.04 5.92-9.45 7.76-15.65 7.42-9.24 23.25-29.5 34.23-54 34.23-12.7 0-24.36-4.78-30.97-16.03l-.1-.2-.95-2c-2.2-4.96-2.95-10.35-2.53-15.8l.2-1.64h9.15v-10.98h10.72v-10.78h21.53V321.5h12.8v21.55z" stroke="#000" stroke-opacity="0" fill="#394d54"/><path d="M954.02 347.1c.7-5.6-3.53-10-6.05-12.1-3.03 3.5-3.53 12.53 1.2 16.4-2.6 2.32-8.16 4.44-13.8 4.44h-68.8c-.52 5.92.5 11.37 2.9 16.03l.72 1.43c.5.84 1.1 1.64 1.7 2.43 2.83.2 5.35.26 7.77.2 4.74-.1 8.48-.68 11.4-1.68.4-.1.9.1 1.1.53.1.42-.1.9-.5 1.06-.4.15-.8.26-1.2.37-2.32.64-4.74 1.12-7.97 1.33h-.2c-.1 0-.2 0-.3.05-1.22.05-2.63.05-3.94.05-1.52 0-3.03 0-4.64-.1l-.1.05c5.75 6.45 14.73 10.32 25.92 10.32 23.8 0 44-10.58 52.87-34.28 6.36.63 12.5-1 15.24-6.4-4.44-2.6-10.1-1.75-13.32-.1z" stroke="#000" stroke-opacity="0" fill="#00aada"/><path d="M954 347.1c.67-5.6-3.52-10-6.03-12.1-3 3.45-3.52 12.55 1.17 16.37-2.6 2.37-8.12 4.46-13.73 4.46h-64.74c-.25 9.05 3.1 15.97 9.04 20.1 4.7-.1 8.46-.68 11.4-1.68.4-.13.92.1 1 .55.17.4 0 .86-.5 1.04-.34.14-.76.23-1.17.37-2.27.64-4.95 1.15-8.13 1.37l-.08-.1c8.12 4.2 19.85 4.15 33.33-1.03 15.08-5.78 29.07-16.88 38.87-29.53-.17.06-.25.15-.42.2z" stroke="#000" stroke-opacity="0" fill="#24b8eb"/><path d="M866.73 363.02c.4 3.16 1.38 6.14 2.75 8.85l.73 1.42c.5.84 1.06 1.66 1.63 2.43 2.83.2 5.5.25 7.84.2 4.7-.1 8.5-.65 11.4-1.67.4-.15.9.08 1.06.52.16.43-.08.9-.5 1.05-.4.15-.8.27-1.2.37-2.26.67-4.93 1.12-8.1 1.32-.07.02-.3.02-.4.02-1.2.08-2.58.1-3.96.1-1.45 0-3-.02-4.7-.1 5.76 6.47 14.82 10.35 26.06 10.35 20.3 0 38.02-7.77 48.3-24.88h-80.9z" stroke="#000" stroke-opacity="0" fill="#008bb8"/><path d="M871.3 363.02c1.2 5.56 4.16 9.93 8.4 12.9 4.63-.08 8.46-.64 11.35-1.66.47-.14.94.1 1.08.5.13.45-.07.92-.47 1.08-.4.12-.8.26-1.2.36-2.3.67-5.05 1.14-8.2 1.33 8.12 4.16 19.8 4.1 33.26-1.08 8.13-3.13 15.93-7.8 22.98-13.43h-67.2z" stroke="#000" stroke-opacity="0" fill="#039bc6"/><path d="M883.73 345.6h.73v7.78h-.73v-7.78zm-1.4 0h.75v7.78h-.76v-7.78zm-1.42 0h.77v7.78h-.76v-7.78zm-1.4 0h.76v7.78h-.76v-7.78zm-1.4 0h.76v7.78h-.77v-7.78zm-1.4 0h.74v7.78h-.73v-7.78zm-.76-.77h9.3v9.33h-9.3v-9.33zM894.46 334.83h.74v7.78h-.74v-7.77zm-1.4 0h.75v7.78h-.75v-7.77zm-1.42 0h.77v7.78h-.76v-7.77zm-1.4 0h.75v7.78h-.77v-7.77zm-1.4 0h.75v7.78h-.77v-7.77zm-1.4 0h.73v7.78h-.73v-7.77zm-.77-.77h9.3v9.33h-9.3v-9.34z" stroke="#000" stroke-opacity="0" fill="#00acd3"/><path d="M894.46 345.6h.74v7.78h-.74v-7.78zm-1.4 0h.75v7.78h-.75v-7.78zm-1.42 0h.77v7.78h-.76v-7.78zm-1.4 0h.75v7.78h-.77v-7.78zm-1.4 0h.75v7.78h-.77v-7.78zm-1.4 0h.73v7.78h-.73v-7.78zm-.77-.77h9.3v9.33h-9.3v-9.33z" stroke="#000" stroke-opacity="0" fill="#20c2ef"/><path d="M905.2 345.6h.73v7.78h-.73v-7.78zm-1.42 0h.76v7.78h-.76v-7.78zm-1.4 0h.76v7.78h-.76v-7.78zm-1.42 0h.77v7.78h-.77v-7.78zm-1.4 0h.76v7.78h-.76v-7.78zm-1.4 0h.75v7.78h-.73v-7.78zm-.76-.77h9.3v9.33h-9.3v-9.33z" stroke="#000" stroke-opacity="0" fill="#00acd3"/><path d="M905.2 334.83h.73v7.78h-.73v-7.77zm-1.42 0h.76v7.78h-.76v-7.77zm-1.4 0h.76v7.78h-.76v-7.77zm-1.42 0h.77v7.78h-.77v-7.77zm-1.4 0h.76v7.78h-.76v-7.77zm-1.4 0h.75v7.78h-.73v-7.77zm-.76-.77h9.3v9.33h-9.3v-9.34zM915.93 345.6h.73v7.78h-.73v-7.78zm-1.42 0h.77v7.78h-.76v-7.78zm-1.4 0h.77v7.78h-.76v-7.78zm-1.4 0h.76v7.78h-.77v-7.78zm-1.4 0h.75v7.78h-.76v-7.78zm-1.4 0h.74v7.78h-.74v-7.78zm-.77-.77h9.3v9.33h-9.3v-9.33z" stroke="#000" stroke-opacity="0" fill="#20c2ef"/><path d="M915.93 334.83h.73v7.78h-.73v-7.77zm-1.42 0h.77v7.78h-.76v-7.77zm-1.4 0h.77v7.78h-.76v-7.77zm-1.4 0h.76v7.78h-.77v-7.77zm-1.4 0h.75v7.78h-.76v-7.77zm-1.4 0h.74v7.78h-.74v-7.77zm-.77-.77h9.3v9.33h-9.3v-9.34z" stroke="#000" stroke-opacity="0" fill="#00acd3"/><path d="M915.93 324.07h.73v7.78h-.73v-7.78zm-1.42 0h.77v7.78h-.76v-7.78zm-1.4 0h.77v7.78h-.76v-7.78zm-1.4 0h.76v7.78h-.77v-7.78zm-1.4 0h.75v7.78h-.76v-7.78zm-1.4 0h.74v7.78h-.74v-7.78zm-.77-.78h9.3v9.33h-9.3v-9.34z" stroke="#000" stroke-opacity="0" fill="#20c2ef"/><path d="M926.66 345.6h.73v7.78h-.74v-7.78zm-1.42 0h.77v7.78h-.76v-7.78zm-1.4 0h.76v7.78h-.76v-7.78zm-1.4 0h.75v7.78h-.77v-7.78zm-1.42 0h.76v7.78h-.76v-7.78zm-1.38 0h.73v7.78h-.73v-7.78zm-.78-.77h9.3v9.33h-9.3v-9.33z" stroke="#000" stroke-opacity="0" fill="#00acd3"/><path d="M895.4 369.3c1.4 0 2.55 1.14 2.55 2.56 0 1.42-1.15 2.57-2.56 2.57-1.43 0-2.58-1.15-2.58-2.57s1.15-2.57 2.57-2.57" stroke="#000" stroke-opacity="0" fill="#d4edf1"/><path d="M895.4 370.02c.22 0 .45.04.65.12-.22.13-.37.37-.37.65 0 .4.33.74.75.74.28 0 .53-.16.66-.4.07.23.12.47.12.72 0 1.02-.82 1.85-1.83 1.85-1.03 0-1.85-.82-1.85-1.84s.82-1.84 1.84-1.84M850 363.95h119.37c-2.63-.66-8.24-1.55-7.28-4.97-4.8 5.5-16.13 3.85-19 1.14-3.22 4.67-21.84 2.9-23.15-.74-4.06 4.73-16.47 4.73-20.53 0-1.32 3.63-19.94 5.4-23.16.74-2.86 2.7-14.2 4.35-18.98-1.14.96 3.42-4.65 4.3-7.28 4.97" stroke="#000" stroke-opacity="0" fill="#394d54"/><path d="M902.2 387.83c-6.36-3.02-9.83-7.13-11.8-11.62-2.35.7-5.18 1.12-8.48 1.3-1.23.08-2.54.1-3.9.1-1.6 0-3.25-.04-5-.13 5.83 5.84 13 10.34 26.27 10.42.95 0 1.94-.02 2.9-.07z" stroke="#000" stroke-opacity="0" fill="#bfdbe0"/><path d="M892.78 380.35c-.87-1.2-1.73-2.7-2.35-4.14-2.37.68-5.2 1.12-8.5 1.3 2.27 1.24 5.5 2.38 10.85 2.85z" stroke="#000" stroke-opacity="0" fill="#d4edf1"/><g><use xlink:href="#D" transform="matrix(1,0,0,1,820,431.5) translate(53.5 14.4)"/></g><path d="M910 491.03v-27.76a6 6 0 0 0-6-6h-70.46a6 6 0 0 1-6-6V378a6 6 0 0 1 6-6h15.5" stroke="#5e5e5e" stroke-width="2" fill="none"/><path d="M911 492.03h-2V491h2z" stroke="#5e5e5e" stroke-width=".05" fill="#5e5e5e"/><path d="M864.3 372l-14.26 4.64v-9.28z" stroke="#5e5e5e" stroke-width="2" fill="#5e5e5e"/><path d="M944.2 372h33a6 6 0 0 1 6 6v73.27a6 6 0 0 1-6 6H916a6 6 0 0 0-6 6v10.26" stroke="#5e5e5e" stroke-width="2" fill="none"/><path d="M944.2 373h-1.92l.35-.34 1.4-1.66h.18z" stroke="#5e5e5e" stroke-width=".05" fill="#5e5e5e"/><path d="M910 488.8l-4.64-14.27h9.28z" stroke="#5e5e5e" stroke-width="2" fill="#5e5e5e"/><path d="M860 807.5a6 6 0 0 1 6-6h368a6 6 0 0 1 6 6v66.24a6 6 0 0 1-6 6H866a6 6 0 0 1-6-6z" stroke="#000" stroke-opacity="0" stroke-width="3" fill="#fff" fill-opacity="0"/><g><use xlink:href="#E" transform="matrix(1,0,0,1,865,806.5) translate(16.97265625000003 45.296874999999986)"/><use xlink:href="#F" transform="matrix(1,0,0,1,865,806.5) translate(257.01171875 45.296874999999986)"/><use xlink:href="#G" transform="matrix(1,0,0,1,865,806.5) translate(329.0234375 45.296874999999986)"/></g><path d="M991.97 553h58.56" stroke="#5e5e5e" stroke-width="2" fill="none"/><path d="M992 554h-1.03v-2H992z" stroke="#5e5e5e" stroke-width=".05" fill="#5e5e5e"/><path d="M1065.8 553l-14.27 4.64v-9.28z" stroke="#5e5e5e" stroke-width="2" fill="#5e5e5e"/><path d="M1231.97 553.75h58.56" stroke="#5e5e5e" stroke-width="2" fill="none"/><path d="M1232 554.75h-1.03v-2h1.03z" stroke="#5e5e5e" stroke-width=".05" fill="#5e5e5e"/><path d="M1305.8 553.75l-14.27 4.64v-9.3z" stroke="#5e5e5e" stroke-width="2" fill="#5e5e5e"/><defs><path fill="#333" d="M212-179c-10-28-35-45-73-45-59 0-87 40-87 99 0 60 29 101 89 101 43 0 62-24 78-52l27 14C228-24 195 4 139 4 59 4 22-46 18-125c-6-104 99-153 187-111 19 9 31 26 39 46" id="H"/><path fill="#333" d="M100-194c62-1 85 37 85 99 1 63-27 99-86 99S16-35 15-95c0-66 28-99 85-99zM99-20c44 1 53-31 53-75 0-43-8-75-51-75s-53 32-53 75 10 74 51 75" id="I"/><path fill="#333" d="M210-169c-67 3-38 105-44 169h-31v-121c0-29-5-50-35-48C34-165 62-65 56 0H25l-1-190h30c1 10-1 24 2 32 10-44 99-50 107 0 11-21 27-35 58-36 85-2 47 119 55 194h-31v-121c0-29-5-49-35-48" id="J"/><path fill="#333" d="M84 4C-5 8 30-112 23-190h32v120c0 31 7 50 39 49 72-2 45-101 50-169h31l1 190h-30c-1-10 1-25-2-33-11 22-28 36-60 37" id="K"/><path fill="#333" d="M117-194c89-4 53 116 60 194h-32v-121c0-31-8-49-39-48C34-167 62-67 57 0H25l-1-190h30c1 10-1 24 2 32 11-22 29-35 61-36" id="L"/><path fill="#333" d="M24-231v-30h32v30H24zM24 0v-190h32V0H24" id="M"/><path fill="#333" d="M59-47c-2 24 18 29 38 22v24C64 9 27 4 27-40v-127H5v-23h24l9-43h21v43h35v23H59v120" id="N"/><path fill="#333" d="M179-190L93 31C79 59 56 82 12 73V49c39 6 53-20 64-50L1-190h34L92-34l54-156h33" id="O"/><g id="a"><use transform="matrix(0.06172839506172839,0,0,0.06172839506172839,0,0)" xlink:href="#H"/><use transform="matrix(0.06172839506172839,0,0,0.06172839506172839,15.987654320987653,0)" xlink:href="#I"/><use transform="matrix(0.06172839506172839,0,0,0.06172839506172839,28.333333333333332,0)" xlink:href="#J"/><use transform="matrix(0.06172839506172839,0,0,0.06172839506172839,46.79012345679012,0)" xlink:href="#J"/><use transform="matrix(0.06172839506172839,0,0,0.06172839506172839,65.24691358024691,0)" xlink:href="#K"/><use transform="matrix(0.06172839506172839,0,0,0.06172839506172839,77.5925925925926,0)" xlink:href="#L"/><use transform="matrix(0.06172839506172839,0,0,0.06172839506172839,89.93827160493828,0)" xlink:href="#M"/><use transform="matrix(0.06172839506172839,0,0,0.06172839506172839,94.81481481481482,0)" xlink:href="#N"/><use transform="matrix(0.06172839506172839,0,0,0.06172839506172839,100.98765432098766,0)" xlink:href="#O"/></g><path fill="#333" d="M140-251c81 0 123 46 123 126C263-46 219 4 140 4 59 4 17-45 17-125s42-126 123-126zm0 227c63 0 89-41 89-101s-29-99-89-99c-61 0-89 39-89 99S79-25 140-24" id="P"/><path fill="#333" d="M114-163C36-179 61-72 57 0H25l-1-190h30c1 12-1 29 2 39 6-27 23-49 58-41v29" id="Q"/><path fill="#333" d="M100-194c63 0 86 42 84 106H49c0 40 14 67 53 68 26 1 43-12 49-29l28 8c-11 28-37 45-77 45C44 4 14-33 15-96c1-61 26-98 85-98zm52 81c6-60-76-77-97-28-3 7-6 17-6 28h103" id="R"/><path fill="#333" d="M141-36C126-15 110 5 73 4 37 3 15-17 15-53c-1-64 63-63 125-63 3-35-9-54-41-54-24 1-41 7-42 31l-33-3c5-37 33-52 76-52 45 0 72 20 72 64v82c-1 20 7 32 28 27v20c-31 9-61-2-59-35zM48-53c0 20 12 33 32 33 41-3 63-29 60-74-43 2-92-5-92 41" id="S"/><path fill="#333" d="M96-169c-40 0-48 33-48 73s9 75 48 75c24 0 41-14 43-38l32 2c-6 37-31 61-74 61-59 0-76-41-82-99-10-93 101-131 147-64 4 7 5 14 7 22l-32 3c-4-21-16-35-41-35" id="T"/><path fill="#333" d="M106-169C34-169 62-67 57 0H25v-261h32l-1 103c12-21 28-36 61-36 89 0 53 116 60 194h-32v-121c2-32-8-49-39-48" id="U"/><g id="b"><use transform="matrix(0.06172839506172839,0,0,0.06172839506172839,0,0)" xlink:href="#P"/><use transform="matrix(0.06172839506172839,0,0,0.06172839506172839,17.28395061728395,0)" xlink:href="#K"/><use transform="matrix(0.06172839506172839,0,0,0.06172839506172839,29.629629629629626,0)" xlink:href="#N"/><use transform="matrix(0.06172839506172839,0,0,0.06172839506172839,35.80246913580247,0)" xlink:href="#Q"/><use transform="matrix(0.06172839506172839,0,0,0.06172839506172839,43.148148148148145,0)" xlink:href="#R"/><use transform="matrix(0.06172839506172839,0,0,0.06172839506172839,55.49382716049382,0)" xlink:href="#S"/><use transform="matrix(0.06172839506172839,0,0,0.06172839506172839,67.8395061728395,0)" xlink:href="#T"/><use transform="matrix(0.06172839506172839,0,0,0.06172839506172839,78.95061728395062,0)" xlink:href="#U"/></g><path fill="#333" d="M33 0v-248h34V0H33" id="V"/><path fill="#333" d="M115-194c55 1 70 41 70 98S169 2 115 4C84 4 66-9 55-30l1 105H24l-1-265h31l2 30c10-21 28-34 59-34zm-8 174c40 0 45-34 45-75s-6-73-45-74c-42 0-51 32-51 76 0 43 10 73 51 73" id="W"/><g id="c"><use transform="matrix(0.06172839506172839,0,0,0.06172839506172839,0,0)" xlink:href="#V"/><use transform="matrix(0.06172839506172839,0,0,0.06172839506172839,6.172839506172839,0)" xlink:href="#J"/><use transform="matrix(0.06172839506172839,0,0,0.06172839506172839,24.629629629629626,0)" xlink:href="#W"/><use transform="matrix(0.06172839506172839,0,0,0.06172839506172839,36.9753086419753,0)" xlink:href="#S"/><use transform="matrix(0.06172839506172839,0,0,0.06172839506172839,49.32098765432098,0)" xlink:href="#T"/><use transform="matrix(0.06172839506172839,0,0,0.06172839506172839,60.43209876543209,0)" xlink:href="#N"/></g><path fill="#282c33" d="M30-248c118-7 216 8 213 122C240-48 200 0 122 0H30v-248zM63-27c89 8 146-16 146-99s-60-101-146-95v194" id="X"/><path fill="#282c33" d="M141-36C126-15 110 5 73 4 37 3 15-17 15-53c-1-64 63-63 125-63 3-35-9-54-41-54-24 1-41 7-42 31l-33-3c5-37 33-52 76-52 45 0 72 20 72 64v82c-1 20 7 32 28 27v20c-31 9-61-2-59-35zM48-53c0 20 12 33 32 33 41-3 63-29 60-74-43 2-92-5-92 41" id="Y"/><path fill="#282c33" d="M59-47c-2 24 18 29 38 22v24C64 9 27 4 27-40v-127H5v-23h24l9-43h21v43h35v23H59v120" id="Z"/><g id="d"><use transform="matrix(0.06172839506172839,0,0,0.06172839506172839,0,0)" xlink:href="#X"/><use transform="matrix(0.06172839506172839,0,0,0.06172839506172839,15.987654320987653,0)" xlink:href="#Y"/><use transform="matrix(0.06172839506172839,0,0,0.06172839506172839,28.333333333333332,0)" xlink:href="#Z"/><use transform="matrix(0.06172839506172839,0,0,0.06172839506172839,34.50617283950617,0)" xlink:href="#Y"/></g><path fill="#282c33" d="M30-248c87 1 191-15 191 75 0 78-77 80-158 76V0H30v-248zm33 125c57 0 124 11 124-50 0-59-68-47-124-48v98" id="aa"/><path fill="#282c33" d="M114-163C36-179 61-72 57 0H25l-1-190h30c1 12-1 29 2 39 6-27 23-49 58-41v29" id="ab"/><path fill="#282c33" d="M100-194c63 0 86 42 84 106H49c0 40 14 67 53 68 26 1 43-12 49-29l28 8c-11 28-37 45-77 45C44 4 14-33 15-96c1-61 26-98 85-98zm52 81c6-60-76-77-97-28-3 7-6 17-6 28h103" id="ac"/><path fill="#282c33" d="M115-194c55 1 70 41 70 98S169 2 115 4C84 4 66-9 55-30l1 105H24l-1-265h31l2 30c10-21 28-34 59-34zm-8 174c40 0 45-34 45-75s-6-73-45-74c-42 0-51 32-51 76 0 43 10 73 51 73" id="ad"/><g id="e"><use transform="matrix(0.06172839506172839,0,0,0.06172839506172839,0,0)" xlink:href="#aa"/><use transform="matrix(0.06172839506172839,0,0,0.06172839506172839,14.814814814814813,0)" xlink:href="#ab"/><use transform="matrix(0.06172839506172839,0,0,0.06172839506172839,22.160493827160494,0)" xlink:href="#ac"/><use transform="matrix(0.06172839506172839,0,0,0.06172839506172839,34.50617283950617,0)" xlink:href="#ad"/></g><path fill="#333" d="M30-248c118-7 216 8 213 122C240-48 200 0 122 0H30v-248zM63-27c89 8 146-16 146-99s-60-101-146-95v194" id="ae"/><g id="f"><use transform="matrix(0.06172839506172839,0,0,0.06172839506172839,0,0)" xlink:href="#ae"/><use transform="matrix(0.06172839506172839,0,0,0.06172839506172839,15.987654320987653,0)" xlink:href="#S"/><use transform="matrix(0.06172839506172839,0,0,0.06172839506172839,28.333333333333332,0)" xlink:href="#N"/><use transform="matrix(0.06172839506172839,0,0,0.06172839506172839,34.50617283950617,0)" xlink:href="#S"/></g><path fill="#333" d="M137 0h-34L2-248h35l83 218 83-218h36" id="af"/><path fill="#333" d="M135-143c-3-34-86-38-87 0 15 53 115 12 119 90S17 21 10-45l28-5c4 36 97 45 98 0-10-56-113-15-118-90-4-57 82-63 122-42 12 7 21 19 24 35" id="ag"/><path fill="#333" d="M24 0v-261h32V0H24" id="ah"/><path fill="#333" d="M9 0v-24l116-142H16v-24h144v24L44-24h123V0H9" id="ai"/><g id="g"><use transform="matrix(0.06172839506172839,0,0,0.06172839506172839,0,0)" xlink:href="#af"/><use transform="matrix(0.06172839506172839,0,0,0.06172839506172839,14.382716049382715,0)" xlink:href="#M"/><use transform="matrix(0.06172839506172839,0,0,0.06172839506172839,19.25925925925926,0)" xlink:href="#ag"/><use transform="matrix(0.06172839506172839,0,0,0.06172839506172839,30.37037037037037,0)" xlink:href="#K"/><use transform="matrix(0.06172839506172839,0,0,0.06172839506172839,42.71604938271605,0)" xlink:href="#S"/><use transform="matrix(0.06172839506172839,0,0,0.06172839506172839,55.06172839506173,0)" xlink:href="#ah"/><use transform="matrix(0.06172839506172839,0,0,0.06172839506172839,59.93827160493827,0)" xlink:href="#M"/><use transform="matrix(0.06172839506172839,0,0,0.06172839506172839,64.81481481481481,0)" xlink:href="#ai"/><use transform="matrix(0.06172839506172839,0,0,0.06172839506172839,75.92592592592592,0)" xlink:href="#S"/><use transform="matrix(0.06172839506172839,0,0,0.06172839506172839,88.27160493827161,0)" xlink:href="#N"/><use transform="matrix(0.06172839506172839,0,0,0.06172839506172839,94.44444444444444,0)" xlink:href="#M"/><use transform="matrix(0.06172839506172839,0,0,0.06172839506172839,99.32098765432099,0)" xlink:href="#I"/><use transform="matrix(0.06172839506172839,0,0,0.06172839506172839,111.66666666666667,0)" xlink:href="#L"/></g><path fill="#333" d="M233-177c-1 41-23 64-60 70L243 0h-38l-65-103H63V0H30v-248c88 3 205-21 203 71zM63-129c60-2 137 13 137-47 0-61-80-42-137-45v92" id="aj"/><path fill="#333" d="M85-194c31 0 48 13 60 33l-1-100h32l1 261h-30c-2-10 0-23-3-31C134-8 116 4 85 4 32 4 16-35 15-94c0-66 23-100 70-100zm9 24c-40 0-46 34-46 75 0 40 6 74 45 74 42 0 51-32 51-76 0-42-9-74-50-73" id="ak"/><path fill="#333" d="M205 0l-28-72H64L36 0H1l101-248h38L239 0h-34zm-38-99l-47-123c-12 45-31 82-46 123h93" id="al"/><path fill="#333" d="M30-248c87 1 191-15 191 75 0 78-77 80-158 76V0H30v-248zm33 125c57 0 124 11 124-50 0-59-68-47-124-48v98" id="am"/><g id="h"><use transform="matrix(0.06172839506172839,0,0,0.06172839506172839,0,0)" xlink:href="#aj"/><use transform="matrix(0.06172839506172839,0,0,0.06172839506172839,15.987654320987653,0)" xlink:href="#R"/><use transform="matrix(0.06172839506172839,0,0,0.06172839506172839,28.333333333333332,0)" xlink:href="#ak"/><use transform="matrix(0.06172839506172839,0,0,0.06172839506172839,40.67901234567901,0)" xlink:href="#H"/><use transform="matrix(0.06172839506172839,0,0,0.06172839506172839,56.666666666666664,0)" xlink:href="#al"/><use transform="matrix(0.06172839506172839,0,0,0.06172839506172839,71.48148148148148,0)" xlink:href="#am"/></g><g id="i"><use transform="matrix(0.06172839506172839,0,0,0.06172839506172839,0,0)" xlink:href="#al"/><use transform="matrix(0.06172839506172839,0,0,0.06172839506172839,14.814814814814813,0)" xlink:href="#am"/><use transform="matrix(0.06172839506172839,0,0,0.06172839506172839,29.629629629629626,0)" xlink:href="#V"/></g><path fill="#a9afb8" d="M67-125c0 53 21 87 73 88 37 1 54-22 65-47l45 17C233-25 199 4 140 4 58 4 20-42 15-125 8-235 124-281 211-232c18 10 29 29 36 50l-46 12c-8-25-30-41-62-41-52 0-71 34-72 86" id="an"/><path fill="#a9afb8" d="M110-194c64 0 96 36 96 99 0 64-35 99-97 99-61 0-95-36-95-99 0-62 34-99 96-99zm-1 164c35 0 45-28 45-65 0-40-10-65-43-65-34 0-45 26-45 65 0 36 10 65 43 65" id="ao"/><path fill="#a9afb8" d="M220-157c-53 9-28 100-34 157h-49v-107c1-27-5-49-29-50C55-147 81-57 75 0H25l-1-190h47c2 12-1 28 3 38 10-53 101-56 108 0 13-22 24-43 59-42 82 1 51 116 57 194h-49v-107c-1-25-5-48-29-50" id="ap"/><path fill="#a9afb8" d="M85 4C-2 5 27-109 22-190h50c7 57-23 150 33 157 60-5 35-97 40-157h50l1 190h-47c-2-12 1-28-3-38-12 25-28 42-61 42" id="aq"/><path fill="#a9afb8" d="M135-194c87-1 58 113 63 194h-50c-7-57 23-157-34-157-59 0-34 97-39 157H25l-1-190h47c2 12-1 28 3 38 12-26 28-41 61-42" id="ar"/><path fill="#a9afb8" d="M25-224v-37h50v37H25zM25 0v-190h50V0H25" id="as"/><path fill="#a9afb8" d="M115-3C79 11 28 4 28-45v-112H4v-33h27l15-45h31v45h36v33H77v99c-1 23 16 31 38 25v30" id="at"/><path fill="#a9afb8" d="M123 10C108 53 80 86 19 72V37c35 8 53-11 59-39L3-190h52l48 148c12-52 28-100 44-148h51" id="au"/><g id="j"><use transform="matrix(0.0728395061728395,0,0,0.0728395061728395,0,0)" xlink:href="#an"/><use transform="matrix(0.0728395061728395,0,0,0.0728395061728395,18.86543209876543,0)" xlink:href="#ao"/><use transform="matrix(0.0728395061728395,0,0,0.0728395061728395,34.81728395061728,0)" xlink:href="#ap"/><use transform="matrix(0.0728395061728395,0,0,0.0728395061728395,58.12592592592593,0)" xlink:href="#ap"/><use transform="matrix(0.0728395061728395,0,0,0.0728395061728395,81.43456790123457,0)" xlink:href="#aq"/><use transform="matrix(0.0728395061728395,0,0,0.0728395061728395,97.38641975308643,0)" xlink:href="#ar"/><use transform="matrix(0.0728395061728395,0,0,0.0728395061728395,113.33827160493829,0)" xlink:href="#as"/><use transform="matrix(0.0728395061728395,0,0,0.0728395061728395,120.62222222222223,0)" xlink:href="#at"/><use transform="matrix(0.0728395061728395,0,0,0.0728395061728395,129.29012345679013,0)" xlink:href="#au"/></g><path fill="#a9afb8" d="M186 0v-106H76V0H24v-248h52v99h110v-99h50V0h-50" id="av"/><path fill="#a9afb8" d="M185-48c-13 30-37 53-82 52C43 2 14-33 14-96s30-98 90-98c62 0 83 45 84 108H66c0 31 8 55 39 56 18 0 30-7 34-22zm-45-69c5-46-57-63-70-21-2 6-4 13-4 21h74" id="aw"/><path fill="#a9afb8" d="M133-34C117-15 103 5 69 4 32 3 11-16 11-54c-1-60 55-63 116-61 1-26-3-47-28-47-18 1-26 9-28 27l-52-2c7-38 36-58 82-57s74 22 75 68l1 82c-1 14 12 18 25 15v27c-30 8-71 5-69-32zm-48 3c29 0 43-24 42-57-32 0-66-3-65 30 0 17 8 27 23 27" id="ax"/><path fill="#a9afb8" d="M25 0v-261h50V0H25" id="ay"/><path fill="#a9afb8" d="M114-157C55-157 80-60 75 0H25v-261h50l-1 109c12-26 28-41 61-42 86-1 58 113 63 194h-50c-7-57 23-157-34-157" id="az"/><path fill="#a9afb8" d="M35-132v-50h50v50H35zM35 0v-49h50V0H35" id="aA"/><g id="k"><use transform="matrix(0.0728395061728395,0,0,0.0728395061728395,0,0)" xlink:href="#av"/><use transform="matrix(0.0728395061728395,0,0,0.0728395061728395,18.86543209876543,0)" xlink:href="#aw"/><use transform="matrix(0.0728395061728395,0,0,0.0728395061728395,33.43333333333333,0)" xlink:href="#ax"/><use transform="matrix(0.0728395061728395,0,0,0.0728395061728395,48.00123456790123,0)" xlink:href="#ay"/><use transform="matrix(0.0728395061728395,0,0,0.0728395061728395,55.28518518518518,0)" xlink:href="#at"/><use transform="matrix(0.0728395061728395,0,0,0.0728395061728395,63.95308641975308,0)" xlink:href="#az"/><use transform="matrix(0.0728395061728395,0,0,0.0728395061728395,79.90493827160493,0)" xlink:href="#aA"/></g><path fill="#a9afb8" d="M238-95c0 69-44 99-111 99C63 4 22-25 22-93v-155h51v151c-1 38 19 59 55 60 90 1 49-130 58-211h52v153" id="aB"/><path fill="#a9afb8" d="M137-138c1-29-70-34-71-4 15 46 118 7 119 86 1 83-164 76-172 9l43-7c4 19 20 25 44 25 33 8 57-30 24-41C81-84 22-81 20-136c-2-80 154-74 161-7" id="aC"/><path fill="#a9afb8" d="M195-6C206 82 75 100 31 46c-4-6-6-13-8-21l49-6c3 16 16 24 34 25 40 0 42-37 40-79-11 22-30 35-61 35-53 0-70-43-70-97 0-56 18-96 73-97 30 0 46 14 59 34l2-30h47zm-90-29c32 0 41-27 41-63 0-35-9-62-40-62-32 0-39 29-40 63 0 36 9 62 39 62" id="aD"/><g id="l"><use transform="matrix(0.0728395061728395,0,0,0.0728395061728395,0,0)" xlink:href="#aB"/><use transform="matrix(0.0728395061728395,0,0,0.0728395061728395,18.86543209876543,0)" xlink:href="#aC"/><use transform="matrix(0.0728395061728395,0,0,0.0728395061728395,33.43333333333333,0)" xlink:href="#as"/><use transform="matrix(0.0728395061728395,0,0,0.0728395061728395,40.717283950617286,0)" xlink:href="#ar"/><use transform="matrix(0.0728395061728395,0,0,0.0728395061728395,56.66913580246913,0)" xlink:href="#aD"/></g><path fill="#a9afb8" d="M240-174c0 40-23 61-54 70L253 0h-59l-57-94H76V0H24v-248c93 4 217-23 216 74zM76-134c48-2 112 12 112-38 0-48-66-32-112-35v73" id="aE"/><use transform="matrix(0.0728395061728395,0,0,0.0728395061728395,0,0)" xlink:href="#aE" id="m"/><g id="n"><use transform="matrix(0.0728395061728395,0,0,0.0728395061728395,0,0)" xlink:href="#at"/><use transform="matrix(0.0728395061728395,0,0,0.0728395061728395,8.667901234567902,0)" xlink:href="#ao"/></g><path fill="#a9afb8" d="M135-150c-39-12-60 13-60 57V0H25l-1-190h47c2 13-1 29 3 40 6-28 27-53 61-41v41" id="aF"/><path fill="#a9afb8" d="M88-194c31-1 46 15 58 34l-1-101h50l1 261h-48c-2-10 0-23-3-31C134-8 116 4 84 4 32 4 16-41 15-95c0-56 19-97 73-99zm17 164c33 0 40-30 41-66 1-37-9-64-41-64s-38 30-39 65c0 43 13 65 39 65" id="aG"/><path fill="#a9afb8" d="M76-54c-1 42 2 86-19 110H24C36 42 46 24 48 0H25v-54h51" id="aH"/><g id="o"><use transform="matrix(0.0728395061728395,0,0,0.0728395061728395,0,0)" xlink:href="#an"/><use transform="matrix(0.0728395061728395,0,0,0.0728395061728395,18.86543209876543,0)" xlink:href="#ao"/><use transform="matrix(0.0728395061728395,0,0,0.0728395061728395,34.81728395061728,0)" xlink:href="#ao"/><use transform="matrix(0.0728395061728395,0,0,0.0728395061728395,50.76913580246913,0)" xlink:href="#aF"/><use transform="matrix(0.0728395061728395,0,0,0.0728395061728395,60.966666666666654,0)" xlink:href="#aG"/><use transform="matrix(0.0728395061728395,0,0,0.0728395061728395,76.91851851851851,0)" xlink:href="#as"/><use transform="matrix(0.0728395061728395,0,0,0.0728395061728395,84.20246913580247,0)" xlink:href="#ar"/><use transform="matrix(0.0728395061728395,0,0,0.0728395061728395,100.15432098765432,0)" xlink:href="#ax"/><use transform="matrix(0.0728395061728395,0,0,0.0728395061728395,114.72222222222221,0)" xlink:href="#at"/><use transform="matrix(0.0728395061728395,0,0,0.0728395061728395,123.39012345679012,0)" xlink:href="#aw"/><use transform="matrix(0.0728395061728395,0,0,0.0728395061728395,137.95802469135802,0)" xlink:href="#aH"/></g><path fill="#a9afb8" d="M199 0l-22-63H83L61 0H9l90-248h61L250 0h-51zm-33-102l-36-108c-10 38-24 72-36 108h72" id="aI"/><path fill="#a9afb8" d="M12 0v-35l95-120H19v-35h142v35L67-36h103V0H12" id="aJ"/><g id="p"><use transform="matrix(0.0728395061728395,0,0,0.0728395061728395,0,0)" xlink:href="#aI"/><use transform="matrix(0.0728395061728395,0,0,0.0728395061728395,18.86543209876543,0)" xlink:href="#ar"/><use transform="matrix(0.0728395061728395,0,0,0.0728395061728395,34.81728395061728,0)" xlink:href="#ax"/><use transform="matrix(0.0728395061728395,0,0,0.0728395061728395,49.38518518518518,0)" xlink:href="#ay"/><use transform="matrix(0.0728395061728395,0,0,0.0728395061728395,56.66913580246913,0)" xlink:href="#au"/><use transform="matrix(0.0728395061728395,0,0,0.0728395061728395,71.23703703703703,0)" xlink:href="#aJ"/><use transform="matrix(0.0728395061728395,0,0,0.0728395061728395,84.34814814814814,0)" xlink:href="#aw"/></g><g id="q"><use transform="matrix(0.0728395061728395,0,0,0.0728395061728395,0,0)" xlink:href="#ax"/><use transform="matrix(0.0728395061728395,0,0,0.0728395061728395,14.5679012345679,0)" xlink:href="#ar"/><use transform="matrix(0.0728395061728395,0,0,0.0728395061728395,30.51975308641975,0)" xlink:href="#aG"/></g><path fill="#a9afb8" d="M169-182c-1-43-94-46-97-3 18 66 151 10 154 114 3 95-165 93-204 36-6-8-10-19-12-30l50-8c3 46 112 56 116 5-17-69-150-10-154-114-4-87 153-88 188-35 5 8 8 18 10 28" id="aK"/><g id="r"><use transform="matrix(0.0728395061728395,0,0,0.0728395061728395,0,0)" xlink:href="#aK"/><use transform="matrix(0.0728395061728395,0,0,0.0728395061728395,17.48148148148148,0)" xlink:href="#az"/><use transform="matrix(0.0728395061728395,0,0,0.0728395061728395,33.43333333333333,0)" xlink:href="#ax"/><use transform="matrix(0.0728395061728395,0,0,0.0728395061728395,48.00123456790123,0)" xlink:href="#aF"/><use transform="matrix(0.0728395061728395,0,0,0.0728395061728395,58.19876543209875,0)" xlink:href="#aw"/></g><g id="s"><use transform="matrix(0.0728395061728395,0,0,0.0728395061728395,0,0)" xlink:href="#an"/><use transform="matrix(0.0728395061728395,0,0,0.0728395061728395,18.86543209876543,0)" xlink:href="#ao"/><use transform="matrix(0.0728395061728395,0,0,0.0728395061728395,34.81728395061728,0)" xlink:href="#ap"/><use transform="matrix(0.0728395061728395,0,0,0.0728395061728395,58.12592592592593,0)" xlink:href="#ap"/><use transform="matrix(0.0728395061728395,0,0,0.0728395061728395,81.43456790123457,0)" xlink:href="#aq"/><use transform="matrix(0.0728395061728395,0,0,0.0728395061728395,97.38641975308643,0)" xlink:href="#ar"/><use transform="matrix(0.0728395061728395,0,0,0.0728395061728395,113.33827160493829,0)" xlink:href="#as"/><use transform="matrix(0.0728395061728395,0,0,0.0728395061728395,120.62222222222223,0)" xlink:href="#at"/><use transform="matrix(0.0728395061728395,0,0,0.0728395061728395,129.29012345679013,0)" xlink:href="#au"/></g><path fill="#a9afb8" d="M128 0H69L1-190h53L99-40l48-150h52" id="aL"/><g id="t"><use transform="matrix(0.0728395061728395,0,0,0.0728395061728395,0,0)" xlink:href="#aK"/><use transform="matrix(0.0728395061728395,0,0,0.0728395061728395,17.48148148148148,0)" xlink:href="#aq"/><use transform="matrix(0.0728395061728395,0,0,0.0728395061728395,33.43333333333333,0)" xlink:href="#aF"/><use transform="matrix(0.0728395061728395,0,0,0.0728395061728395,43.63086419753086,0)" xlink:href="#aL"/><use transform="matrix(0.0728395061728395,0,0,0.0728395061728395,58.19876543209875,0)" xlink:href="#aw"/><use transform="matrix(0.0728395061728395,0,0,0.0728395061728395,72.76666666666667,0)" xlink:href="#au"/></g><path fill="#a9afb8" d="M24-248c120-7 223 5 221 122C244-46 201 0 124 0H24v-248zM76-40c74 7 117-18 117-86 0-67-45-88-117-82v168" id="aM"/><g id="u"><use transform="matrix(0.0728395061728395,0,0,0.0728395061728395,0,0)" xlink:href="#aM"/><use transform="matrix(0.0728395061728395,0,0,0.0728395061728395,18.86543209876543,0)" xlink:href="#ax"/><use transform="matrix(0.0728395061728395,0,0,0.0728395061728395,33.43333333333333,0)" xlink:href="#at"/><use transform="matrix(0.0728395061728395,0,0,0.0728395061728395,42.10123456790124,0)" xlink:href="#ax"/></g><path fill="#a9afb8" d="M205 0l-28-72H64L36 0H1l101-248h38L239 0h-34zm-38-99l-47-123c-12 45-31 82-46 123h93" id="aN"/><path fill="#a9afb8" d="M117-194c89-4 53 116 60 194h-32v-121c0-31-8-49-39-48C34-167 62-67 57 0H25l-1-190h30c1 10-1 24 2 32 11-22 29-35 61-36" id="aO"/><path fill="#a9afb8" d="M85-194c31 0 48 13 60 33l-1-100h32l1 261h-30c-2-10 0-23-3-31C134-8 116 4 85 4 32 4 16-35 15-94c0-66 23-100 70-100zm9 24c-40 0-46 34-46 75 0 40 6 74 45 74 42 0 51-32 51-76 0-42-9-74-50-73" id="aP"/><path fill="#a9afb8" d="M114-163C36-179 61-72 57 0H25l-1-190h30c1 12-1 29 2 39 6-27 23-49 58-41v29" id="aQ"/><path fill="#a9afb8" d="M100-194c63 0 86 42 84 106H49c0 40 14 67 53 68 26 1 43-12 49-29l28 8c-11 28-37 45-77 45C44 4 14-33 15-96c1-61 26-98 85-98zm52 81c6-60-76-77-97-28-3 7-6 17-6 28h103" id="aR"/><path fill="#a9afb8" d="M206 0h-36l-40-164L89 0H53L-1-190h32L70-26l43-164h34l41 164 42-164h31" id="aS"/><g id="w"><use transform="matrix(0.04248971193415638,0,0,0.04248971193415638,0,0)" xlink:href="#aN"/><use transform="matrix(0.04248971193415638,0,0,0.04248971193415638,10.19753086419753,0)" xlink:href="#aO"/><use transform="matrix(0.04248971193415638,0,0,0.04248971193415638,18.695473251028805,0)" xlink:href="#aP"/><use transform="matrix(0.04248971193415638,0,0,0.04248971193415638,27.193415637860078,0)" xlink:href="#aQ"/><use transform="matrix(0.04248971193415638,0,0,0.04248971193415638,32.249691358024684,0)" xlink:href="#aR"/><use transform="matrix(0.04248971193415638,0,0,0.04248971193415638,40.74763374485596,0)" xlink:href="#aS"/></g><path fill="#a9afb8" d="M137 0h-34L2-248h35l83 218 83-218h36" id="aT"/><path fill="#a9afb8" d="M141-36C126-15 110 5 73 4 37 3 15-17 15-53c-1-64 63-63 125-63 3-35-9-54-41-54-24 1-41 7-42 31l-33-3c5-37 33-52 76-52 45 0 72 20 72 64v82c-1 20 7 32 28 27v20c-31 9-61-2-59-35zM48-53c0 20 12 33 32 33 41-3 63-29 60-74-43 2-92-5-92 41" id="aU"/><path fill="#a9afb8" d="M96-169c-40 0-48 33-48 73s9 75 48 75c24 0 41-14 43-38l32 2c-6 37-31 61-74 61-59 0-76-41-82-99-10-93 101-131 147-64 4 7 5 14 7 22l-32 3c-4-21-16-35-41-35" id="aV"/><path fill="#a9afb8" d="M24-231v-30h32v30H24zM24 0v-190h32V0H24" id="aW"/><path fill="#a9afb8" d="M24 0v-261h32V0H24" id="aX"/><g id="x"><use transform="matrix(0.04248971193415638,0,0,0.04248971193415638,0,0)" xlink:href="#aT"/><use transform="matrix(0.04248971193415638,0,0,0.04248971193415638,9.050308641975308,0)" xlink:href="#aU"/><use transform="matrix(0.04248971193415638,0,0,0.04248971193415638,17.548251028806582,0)" xlink:href="#aO"/><use transform="matrix(0.04248971193415638,0,0,0.04248971193415638,26.04619341563786,0)" xlink:href="#aV"/><use transform="matrix(0.04248971193415638,0,0,0.04248971193415638,33.694341563786004,0)" xlink:href="#aW"/><use transform="matrix(0.04248971193415638,0,0,0.04248971193415638,37.051028806584355,0)" xlink:href="#aX"/></g><path fill="#333" d="M185-189c-5-48-123-54-124 2 14 75 158 14 163 119 3 78-121 87-175 55-17-10-28-26-33-46l33-7c5 56 141 63 141-1 0-78-155-14-162-118-5-82 145-84 179-34 5 7 8 16 11 25" id="aY"/><path fill="#333" d="M115-194c53 0 69 39 70 98 0 66-23 100-70 100C84 3 66-7 56-30L54 0H23l1-261h32v101c10-23 28-34 59-34zm-8 174c40 0 45-34 45-75 0-40-5-75-45-74-42 0-51 32-51 76 0 43 10 73 51 73" id="aZ"/><g id="y"><use transform="matrix(0.06172839506172839,0,0,0.06172839506172839,0,0)" xlink:href="#aY"/><use transform="matrix(0.06172839506172839,0,0,0.06172839506172839,14.814814814814813,0)" xlink:href="#U"/><use transform="matrix(0.06172839506172839,0,0,0.06172839506172839,27.160493827160494,0)" xlink:href="#S"/><use transform="matrix(0.06172839506172839,0,0,0.06172839506172839,39.50617283950617,0)" xlink:href="#Q"/><use transform="matrix(0.06172839506172839,0,0,0.06172839506172839,46.85185185185185,0)" xlink:href="#R"/><use transform="matrix(0.06172839506172839,0,0,0.06172839506172839,59.197530864197525,0)" xlink:href="#S"/><use transform="matrix(0.06172839506172839,0,0,0.06172839506172839,71.5432098765432,0)" xlink:href="#aZ"/><use transform="matrix(0.06172839506172839,0,0,0.06172839506172839,83.88888888888889,0)" xlink:href="#ah"/><use transform="matrix(0.06172839506172839,0,0,0.06172839506172839,88.76543209876543,0)" xlink:href="#R"/></g><g id="z"><use transform="matrix(0.06172839506172839,0,0,0.06172839506172839,0,0)" xlink:href="#aj"/><use transform="matrix(0.06172839506172839,0,0,0.06172839506172839,15.987654320987653,0)" xlink:href="#R"/><use transform="matrix(0.06172839506172839,0,0,0.06172839506172839,28.333333333333332,0)" xlink:href="#W"/><use transform="matrix(0.06172839506172839,0,0,0.06172839506172839,40.67901234567901,0)" xlink:href="#I"/><use transform="matrix(0.06172839506172839,0,0,0.06172839506172839,53.02469135802469,0)" xlink:href="#Q"/><use transform="matrix(0.06172839506172839,0,0,0.06172839506172839,60.37037037037037,0)" xlink:href="#N"/></g><path fill="#333" d="M30 0v-248h187v28H63v79h144v27H63v87h162V0H30" id="ba"/><path fill="#333" d="M177-190C167-65 218 103 67 71c-23-6-38-20-44-43l32-5c15 47 100 32 89-28v-30C133-14 115 1 83 1 29 1 15-40 15-95c0-56 16-97 71-98 29-1 48 16 59 35 1-10 0-23 2-32h30zM94-22c36 0 50-32 50-73 0-42-14-75-50-75-39 0-46 34-46 75s6 73 46 73" id="bb"/><g id="A"><use transform="matrix(0.06172839506172839,0,0,0.06172839506172839,0,0)" xlink:href="#ba"/><use transform="matrix(0.06172839506172839,0,0,0.06172839506172839,14.814814814814813,0)" xlink:href="#L"/><use transform="matrix(0.06172839506172839,0,0,0.06172839506172839,27.160493827160494,0)" xlink:href="#bb"/><use transform="matrix(0.06172839506172839,0,0,0.06172839506172839,39.50617283950617,0)" xlink:href="#ah"/><use transform="matrix(0.06172839506172839,0,0,0.06172839506172839,44.382716049382715,0)" xlink:href="#M"/><use transform="matrix(0.06172839506172839,0,0,0.06172839506172839,49.25925925925926,0)" xlink:href="#ag"/><use transform="matrix(0.06172839506172839,0,0,0.06172839506172839,60.37037037037037,0)" xlink:href="#U"/></g><path fill="#333" d="M108 0H70L1-190h34L89-25l56-165h34" id="bc"/><g id="B"><use transform="matrix(0.06172839506172839,0,0,0.06172839506172839,0,0)" xlink:href="#aY"/><use transform="matrix(0.06172839506172839,0,0,0.06172839506172839,14.814814814814813,0)" xlink:href="#K"/><use transform="matrix(0.06172839506172839,0,0,0.06172839506172839,27.160493827160494,0)" xlink:href="#Q"/><use transform="matrix(0.06172839506172839,0,0,0.06172839506172839,34.50617283950617,0)" xlink:href="#bc"/><use transform="matrix(0.06172839506172839,0,0,0.06172839506172839,45.61728395061728,0)" xlink:href="#R"/><use transform="matrix(0.06172839506172839,0,0,0.06172839506172839,57.962962962962955,0)" xlink:href="#O"/></g><g id="C"><use transform="matrix(0.06172839506172839,0,0,0.06172839506172839,0,0)" xlink:href="#aY"/><use transform="matrix(0.06172839506172839,0,0,0.06172839506172839,14.814814814814813,0)" xlink:href="#W"/><use transform="matrix(0.06172839506172839,0,0,0.06172839506172839,27.160493827160494,0)" xlink:href="#S"/><use transform="matrix(0.06172839506172839,0,0,0.06172839506172839,39.50617283950617,0)" xlink:href="#L"/><use transform="matrix(0.06172839506172839,0,0,0.06172839506172839,51.85185185185185,0)" xlink:href="#M"/><use transform="matrix(0.06172839506172839,0,0,0.06172839506172839,56.72839506172839,0)" xlink:href="#ag"/><use transform="matrix(0.06172839506172839,0,0,0.06172839506172839,67.8395061728395,0)" xlink:href="#U"/></g><path d="M143 4C61 4 22-44 18-125c-5-107 100-154 193-111 17 8 29 25 37 43l-32 9c-13-25-37-40-76-40-61 0-88 39-88 99 0 61 29 100 91 101 35 0 62-11 79-27v-45h-74v-28h105v86C228-13 192 4 143 4" id="bd"/><path d="M100-194c63 0 86 42 84 106H49c0 40 14 67 53 68 26 1 43-12 49-29l28 8c-11 28-37 45-77 45C44 4 14-33 15-96c1-61 26-98 85-98zm52 81c6-60-76-77-97-28-3 7-6 17-6 28h103" id="be"/><path d="M100-194c62-1 85 37 85 99 1 63-27 99-86 99S16-35 15-95c0-66 28-99 85-99zM99-20c44 1 53-31 53-75 0-43-8-75-51-75s-53 32-53 75 10 74 51 75" id="bf"/><path d="M96-169c-40 0-48 33-48 73s9 75 48 75c24 0 41-14 43-38l32 2c-6 37-31 61-74 61-59 0-76-41-82-99-10-93 101-131 147-64 4 7 5 14 7 22l-32 3c-4-21-16-35-41-35" id="bg"/><path d="M85-194c31 0 48 13 60 33l-1-100h32l1 261h-30c-2-10 0-23-3-31C134-8 116 4 85 4 32 4 16-35 15-94c0-66 23-100 70-100zm9 24c-40 0-46 34-46 75 0 40 6 74 45 74 42 0 51-32 51-76 0-42-9-74-50-73" id="bh"/><g id="D"><use transform="matrix(0.05,0,0,0.05,0,0)" xlink:href="#bd"/><use transform="matrix(0.05,0,0,0.05,14,0)" xlink:href="#be"/><use transform="matrix(0.05,0,0,0.05,24,0)" xlink:href="#bf"/><use transform="matrix(0.05,0,0,0.05,34,0)" xlink:href="#bg"/><use transform="matrix(0.05,0,0,0.05,43,0)" xlink:href="#bf"/><use transform="matrix(0.05,0,0,0.05,53,0)" xlink:href="#bh"/><use transform="matrix(0.05,0,0,0.05,63,0)" xlink:href="#be"/></g><path fill="#333" d="M251-945c-104-289 136-493 421-493 94 0 187 14 280 43l-37 140c-210-82-526-60-528 182 0 85 71 158 211 225 177 85 201 79 309 177 65 59 115 146 115 265 0 265-215 434-465 433-121 0-228-24-319-72l34-141c107 49 201 73 281 73 177 0 311-99 309-272 0-63-18-115-55-159s-105-87-203-134c-169-81-188-73-285-166-30-29-54-63-68-101" id="bi"/><path fill="#333" d="M340-520c0 222 153 411 375 411 88 0 179-17 272-51l27 125C923 6 824 27 715 27c-324 0-539-223-539-547 0-322 217-547 535-547 105 0 204 18 299 55l-41 129c-95-33-180-49-256-49-234-2-373 171-373 412" id="bj"/><path fill="#333" d="M862-668c-1-164-37-264-184-264-95 0-198 59-307 178V0H215v-1411h156v522c112-119 230-178 354-178 195 0 293 118 293 354V0H862v-668" id="bk"/><path fill="#333" d="M627-1067c255 1 431 226 422 502v49H334c-8 217 149 407 354 407 95 0 192-17 293-51l27 125C916 6 809 27 686 27c-314 0-516-228-516-551 0-303 173-543 457-543zm252 424c8-145-114-289-246-289-166 0-282 128-289 289h535" id="bl"/><path fill="#333" d="M145-537c0-273 140-530 396-530 131 0 237 53 317 160v-504h156V0H858v-150C803-58 673 27 532 27c-119 0-214-53-283-159S145-374 145-537zm164 9c0 205 79 415 264 415 105 0 175-59 232-128 35-43 53-69 53-78v-433c-75-120-165-180-270-180-189 1-279 200-279 404" id="bm"/><path fill="#333" d="M369-375c2 160 35 264 184 264 95 0 198-59 307-178v-753h156V0H860v-154C748-35 630 25 506 25 311 25 213-93 213-330v-712h156v667" id="bn"/><path fill="#333" d="M942 0H516v-1276H244v-135h428v1276h270V0" id="bo"/><g id="E"><use transform="matrix(0.019531249999999993,0,0,0.019531249999999993,0,0)" xlink:href="#bi"/><use transform="matrix(0.019531249999999993,0,0,0.019531249999999993,24.003906249999993,0)" xlink:href="#bj"/><use transform="matrix(0.019531249999999993,0,0,0.019531249999999993,48.007812499999986,0)" xlink:href="#bk"/><use transform="matrix(0.019531249999999993,0,0,0.019531249999999993,72.01171874999997,0)" xlink:href="#bl"/><use transform="matrix(0.019531249999999993,0,0,0.019531249999999993,96.01562499999997,0)" xlink:href="#bm"/><use transform="matrix(0.019531249999999993,0,0,0.019531249999999993,120.01953124999997,0)" xlink:href="#bn"/><use transform="matrix(0.019531249999999993,0,0,0.019531249999999993,144.02343749999997,0)" xlink:href="#bo"/><use transform="matrix(0.019531249999999993,0,0,0.019531249999999993,168.02734374999997,0)" xlink:href="#bl"/><use transform="matrix(0.019531249999999993,0,0,0.019531249999999993,192.03124999999997,0)" xlink:href="#bm"/></g><path fill="#333" d="M578-1329c0-54 51-107 104-107 57 0 106 50 106 107 0 59-47 108-106 108-53 0-104-54-104-108zM758 0H602v-907H295v-135h463V0" id="bp"/><path fill="#333" d="M862-668c-1-164-37-264-184-264-95 0-198 59-307 178V0H215v-1042h156v153c112-119 230-178 354-178 195 0 293 118 293 354V0H862v-668" id="bq"/><g id="F"><use transform="matrix(0.019531249999999993,0,0,0.019531249999999993,0,0)" xlink:href="#bp"/><use transform="matrix(0.019531249999999993,0,0,0.019531249999999993,24.003906249999993,0)" xlink:href="#bq"/></g><path fill="#333" d="M1042-1042c-2 194-145 329-319 366L1174 0H969L555-641H373V0H209v-1411h399c251-3 436 127 434 369zM580-784c159 5 293-99 292-248 0-157-96-236-288-236H373v484h207" id="br"/><use transform="matrix(0.019531249999999993,0,0,0.019531249999999993,0,0)" xlink:href="#br" id="G"/></defs></g></svg>